<svg xmlns="http://www.w3.org/2000/svg" width="73" height="21" viewBox="0 0 73 21"><path fill="#72829B" fill-rule="evenodd" d="M7.522 14.094c0-1.055-.215-1.84-.646-2.353-.43-.513-1.03-.77-1.804-.77-.193 0-.475.017-.846.052a5.334 5.334 0 0 0-1.092.22v5.79c.297.082.608.138.936.166.327.027.594.04.802.04.816 0 1.462-.235 1.937-.707.474-.47.712-1.283.712-2.436zm3.135.094c0 .817-.105 1.58-.313 2.292a4.95 4.95 0 0 1-.992 1.858c-.453.528-1.04.948-1.76 1.257-.717.31-1.58.465-2.586.465-.777 0-1.575-.064-2.395-.19a8.687 8.687 0 0 1-2.22-.634c-.174-.07-.28-.155-.325-.253a.944.944 0 0 1-.065-.38V4.81c0-.168.036-.28.107-.338.072-.056.193-.084.364-.084H2.68c.157 0 .27.025.343.074.072.05.108.166.108.348l.022 3.97a7.526 7.526 0 0 1 1.23-.254c.445-.055.884-.084 1.316-.084.877 0 1.63.148 2.255.444.626.295 1.14.7 1.543 1.214.402.514.697 1.123.884 1.827.187.704.28 1.457.28 2.26zm13.56-3.14c-.14 0-.34.005-.6.012-.258.007-.535.04-.83.097v8.514c0 .16-.023.263-.072.314-.05.05-.17.075-.367.075h-2.16c-.155 0-.267-.026-.337-.077-.07-.05-.104-.154-.104-.312v-9.246c0-.488.084-.873.25-1.154.17-.28.518-.477 1.05-.592.138-.03.337-.054.595-.075.26-.022.535-.043.828-.065.293-.022.583-.04.87-.054.285-.014.533-.02.742-.02.977 0 1.822.1 2.534.3.712.2 1.302.52 1.77.96.467.44.816 1.012 1.046 1.724.23.71.346 1.577.346 2.597v5.626c0 .16-.025.263-.074.314-.048.05-.17.075-.364.075H27.17c-.152 0-.263-.026-.333-.077-.07-.05-.104-.154-.104-.312v-5.82c0-.473-.038-.882-.115-1.227a2.12 2.12 0 0 0-.4-.873 1.67 1.67 0 0 0-.775-.528c-.33-.116-.738-.173-1.227-.173zm14.65 3.683h-1.75c-.207 0-.427.015-.663.043a1.86 1.86 0 0 0-.653.2 1.368 1.368 0 0 0-.496.453c-.133.197-.2.463-.2.8 0 .49.173.834.52 1.03.346.198.815.296 1.404.296a7.16 7.16 0 0 0 1.35-.137c.176-.035.34-.08.487-.137V14.73zM42 18.458c0 .183-.026.338-.076.464-.05.128-.175.247-.376.36a6.05 6.05 0 0 1-1.066.38c-.38.098-.768.175-1.162.23a17.507 17.507 0 0 1-2.336.17c-.975 0-1.782-.092-2.42-.274-.64-.183-1.152-.433-1.54-.75a2.587 2.587 0 0 1-.818-1.116 3.97 3.97 0 0 1-.236-1.38c0-.55.094-1.052.28-1.508.187-.457.468-.854.842-1.192.373-.337.844-.6 1.413-.79.568-.19 1.24-.285 2.016-.285h2.374v-.338a2.45 2.45 0 0 0-.065-.57.97.97 0 0 0-.27-.473 1.517 1.517 0 0 0-.573-.327c-.244-.084-.568-.126-.97-.126-.216 0-.46.01-.733.032-.274.022-.547.05-.82.085-.273.036-.54.078-.798.127a8.63 8.63 0 0 0-.69.158c-.187.042-.316.042-.388 0-.072-.042-.122-.134-.15-.274L33.09 9.58c-.044-.153-.047-.262-.01-.325.034-.063.11-.116.226-.16a10.665 10.665 0 0 1 2.038-.484 15.59 15.59 0 0 1 2.124-.147c1.563 0 2.71.327 3.437.98.728.655 1.093 1.62 1.093 2.9v6.115zm6.582-.278c0 .53-.194.974-.583 1.336-.39.362-.87.544-1.444.544-.28 0-.543-.05-.793-.146a2.065 2.065 0 0 1-.65-.397 1.897 1.897 0 0 1-.44-.596 1.696 1.696 0 0 1-.166-.74c0-.264.056-.512.166-.742.11-.23.256-.428.44-.595a2.165 2.165 0 0 1 1.443-.543c.573 0 1.054.18 1.443.543.388.36.582.807.582 1.336zm9.09-3.45h-1.748c-.207 0-.43.015-.665.043a1.86 1.86 0 0 0-.652.2c-.2.106-.366.256-.5.453s-.198.463-.198.8c0 .49.173.834.52 1.03.346.198.815.296 1.405.296a7.18 7.18 0 0 0 1.35-.137c.177-.035.338-.08.486-.137V14.73zm3.134 3.727c0 .183-.025.338-.075.464-.05.128-.175.247-.375.36-.33.155-.687.282-1.067.38-.38.098-.768.175-1.162.23a17.423 17.423 0 0 1-2.335.17c-.975 0-1.782-.092-2.42-.274-.64-.183-1.15-.433-1.54-.75a2.587 2.587 0 0 1-.817-1.116 3.984 3.984 0 0 1-.237-1.38c0-.55.094-1.052.28-1.508.188-.457.468-.854.84-1.192.376-.337.847-.6 1.415-.79.57-.19 1.24-.285 2.017-.285H57.7v-.338c0-.196-.022-.386-.065-.57a.964.964 0 0 0-.27-.473 1.514 1.514 0 0 0-.57-.327c-.245-.084-.57-.126-.97-.126-.218 0-.462.01-.735.032-.273.022-.546.05-.82.085-.272.036-.54.078-.797.127-.26.05-.49.102-.69.158-.188.042-.317.042-.39 0-.072-.042-.122-.134-.15-.274l-.345-1.477c-.044-.153-.047-.262-.01-.325.035-.063.11-.116.226-.16a10.648 10.648 0 0 1 2.038-.484c.712-.097 1.42-.147 2.125-.147 1.563 0 2.708.327 3.437.98.73.655 1.093 1.62 1.093 2.9v6.115zm11.177-8.07c0 .216-.032.428-.096.635a1.683 1.683 0 0 1-.33.59l-5.126 5.804.043.107h5.21c.157 0 .265.025.32.075.058.05.086.155.086.312v1.74c0 .16-.025.266-.075.324-.05.057-.153.086-.31.086h-8.307c-.356 0-.616-.083-.78-.248-.163-.164-.245-.39-.245-.677v-.644c0-.215.03-.43.096-.645.063-.214.202-.443.415-.687l5.104-5.803-.044-.086H63.29c-.17 0-.276-.03-.32-.086-.04-.058-.063-.165-.063-.323V9.186c0-.273.135-.41.406-.41h7.603c.355 0 .622.055.8.163.178.107.267.34.267.698v.752zm-55.585 4.325v.406l-.81.79.81.908v2.288c0 .155.006.293-.044.343-.05.05-1.504 1.553-1.79 1.553-.22 0-1.032-1.122-1.08-1.186-.112-.152-.182-.26-.182-.415v-9.304c-2.24-.563-3.9-2.574-3.9-4.97C9.403 2.296 11.72 0 14.576 0c2.856 0 5.17 2.295 5.17 5.127 0 2.194-1.39 4.066-3.347 4.797v4.788zm-1.51-12.518a1.41 1.41 0 1 0 0 2.82 1.41 1.41 0 0 0 0-2.82z"/></svg>
