<svg xmlns="http://www.w3.org/2000/svg" width="85" height="18" viewBox="0 0 85 18"><path fill="#72829B" fill-rule="evenodd" d="M11.93 11.24a9.51 9.51 0 0 1-.35 2.63A5.73 5.73 0 0 1 10.47 16c-.51.606-1.164 1.086-1.97 1.442-.805.355-1.77.533-2.898.533-.87 0-1.763-.073-2.68-.22a9.54 9.54 0 0 1-2.487-.726c-.193-.08-.314-.178-.362-.29A1.112 1.112 0 0 1 0 16.3V.485C.002.29.042.162.124.097.2.032.34 0 .532 0H3.02c.177 0 .306.028.386.085.08.056.12.19.12.4V5.04c.42-.13.878-.227 1.377-.29.5-.067.99-.1 1.472-.1.983 0 1.825.17 2.524.51.7.34 1.275.804 1.725 1.393.45.59.78 1.288.99 2.096.21.806.315 1.67.315 2.59zm-3.647.074c0-1.228-.233-2.14-.7-2.738-.467-.598-1.118-.897-1.956-.897-.21 0-.515.02-.917.06a5.357 5.357 0 0 0-1.183.252v6.736c.322.097.66.16 1.014.194.355.032.644.048.87.048.886 0 1.586-.274 2.1-.823.517-.55.773-1.494.773-2.834zm18.012-.025c0 2.13-.507 3.778-1.522 4.94-1.014 1.164-2.56 1.745-4.636 1.745-2.092 0-3.622-.582-4.587-1.745-.967-1.163-1.45-2.794-1.45-4.894 0-1.033.14-1.965.423-2.797.282-.833.684-1.532 1.207-2.098.522-.566 1.16-1 1.907-1.308.75-.306 1.598-.46 2.548-.46 2.027 0 3.553.585 4.575 1.756 1.02 1.17 1.532 2.79 1.532 4.857l.003.002zm-3.646.07c0-.55-.04-1.05-.12-1.5a3.41 3.41 0 0 0-.412-1.163 2.193 2.193 0 0 0-.75-.764c-.305-.185-.683-.278-1.134-.278-.853 0-1.485.327-1.895.98-.412.655-.617 1.54-.617 2.654 0 1.21.19 2.13.567 2.76.378.63 1.002.945 1.87.945.45 0 .834-.092 1.148-.278.313-.185.57-.443.772-.775a3.57 3.57 0 0 0 .435-1.15 7.19 7.19 0 0 0 .132-1.43h.002zm15.86 2.715c0 1.308-.46 2.286-1.387 2.932-.925.646-2.137.97-3.634.97a13.44 13.44 0 0 1-2.644-.28c-.925-.186-1.742-.49-2.45-.908-.13-.083-.205-.167-.228-.257-.025-.09.003-.214.084-.375l.7-1.672c.08-.177.165-.287.253-.327.09-.04.222-.02.4.06.256.11.546.22.868.325a12.38 12.38 0 0 0 2.004.473c.322.05.612.073.87.073.58 0 .986-.1 1.22-.302a.97.97 0 0 0 .35-.764c0-.323-.166-.597-.495-.823-.33-.225-.898-.492-1.703-.8a15.132 15.132 0 0 1-1.704-.75 6.296 6.296 0 0 1-1.243-.835A3.095 3.095 0 0 1 29 9.797c-.176-.38-.265-.818-.265-1.32 0-.532.098-1.03.29-1.49.194-.46.484-.86.87-1.2.387-.338.874-.61 1.46-.81.59-.202 1.286-.302 2.09-.302.725 0 1.46.068 2.21.205.748.137 1.428.343 2.04.618.177.08.273.165.29.254.016.09-.008.23-.072.423l-.603 1.55c-.065.18-.138.28-.218.304-.08.023-.21.003-.387-.06a17.844 17.844 0 0 0-1.64-.412 8.056 8.056 0 0 0-1.547-.146c-.434 0-.75.1-.94.303-.195.202-.29.407-.29.618 0 .323.148.59.445.8.298.21.818.45 1.557.726.58.225 1.127.455 1.642.69.516.233.963.51 1.34.823.38.315.68.69.906 1.127.225.436.338.96.338 1.575h-.005zm12 0c0 1.308-.46 2.286-1.388 2.932-.925.646-2.136.97-3.634.97a13.44 13.44 0 0 1-2.643-.28c-.925-.186-1.742-.49-2.45-.908-.13-.083-.205-.167-.23-.257-.023-.09.005-.214.085-.375l.7-1.672c.08-.177.165-.287.254-.327.088-.04.22-.02.4.06.256.11.546.22.868.325a12.3 12.3 0 0 0 2.004.473c.32.05.61.073.868.073.58 0 .987-.1 1.22-.302a.97.97 0 0 0 .35-.764c0-.323-.166-.597-.494-.823-.33-.225-.898-.492-1.703-.8a15.073 15.073 0 0 1-1.702-.75 6.286 6.286 0 0 1-1.243-.835A3.1 3.1 0 0 1 41 9.797c-.177-.38-.266-.818-.266-1.32 0-.532.097-1.03.29-1.49.193-.46.483-.86.87-1.2.386-.338.873-.61 1.46-.81.588-.202 1.285-.302 2.09-.302.724 0 1.46.068 2.207.205.75.137 1.43.343 2.042.618.178.08.275.165.29.254.017.09-.007.23-.072.423l-.603 1.55c-.064.18-.136.28-.218.304-.08.023-.21.003-.386-.06a17.844 17.844 0 0 0-1.642-.412 8.047 8.047 0 0 0-1.545-.146c-.434 0-.75.1-.942.303-.193.202-.29.407-.29.618 0 .323.15.59.447.8.298.21.817.45 1.558.726.58.225 1.126.455 1.642.69.515.233.96.51 1.34.823.38.315.68.69.905 1.127.225.436.338.96.338 1.575h-.004zm6.737 1.745c0 .614-.212 1.13-.638 1.55-.428.42-.955.63-1.583.63a2.25 2.25 0 0 1-.87-.17 2.21 2.21 0 0 1-1.196-1.15 2.064 2.064 0 0 1-.18-.86c0-.308.06-.594.18-.86s.284-.497.485-.69c.2-.195.44-.35.712-.462.274-.113.563-.17.87-.17.627 0 1.154.21 1.58.63.428.42.64.937.64 1.55v.002zm13.666.314c0 .21-.028.388-.084.534-.057.144-.198.282-.424.41-.37.18-.77.324-1.195.437-.425.113-.86.202-1.303.267a18.75 18.75 0 0 1-2.62.194c-1.093 0-1.998-.105-2.715-.315-.716-.21-1.292-.495-1.726-.86a2.97 2.97 0 0 1-.918-1.284 4.654 4.654 0 0 1-.265-1.585c0-.63.104-1.207.313-1.732.21-.526.523-.982.942-1.37.42-.387.946-.69 1.58-.908.638-.217 1.39-.326 2.26-.326h2.655v-.387c0-.226-.024-.444-.073-.655a1.1 1.1 0 0 0-.302-.544 1.676 1.676 0 0 0-.64-.376c-.27-.097-.634-.146-1.085-.146-.24 0-.515.013-.82.037-.306.024-.61.057-.917.097-.306.04-.604.09-.894.146-.29.056-.547.117-.773.18-.21.05-.355.05-.435 0-.08-.047-.136-.152-.17-.314l-.385-1.695c-.048-.178-.052-.303-.012-.376.04-.072.125-.132.253-.18a11.68 11.68 0 0 1 2.283-.557c.798-.114 1.59-.17 2.38-.17 1.752 0 3.04.375 3.86 1.126.822.75 1.232 1.86 1.232 3.33v7.025h-.002zm-3.524-4.19H65.48a5.7 5.7 0 0 0-.725.048 1.93 1.93 0 0 0-.713.23 1.53 1.53 0 0 0-.542.52c-.145.227-.218.534-.218.92 0 .567.19.962.567 1.188.38.227.89.34 1.533.34a7.748 7.748 0 0 0 .906-.06c.184-.025.374-.058.566-.098.194-.04.37-.092.532-.158v-2.93zM83.9 6.806c0 .243-.036.482-.108.715a1.916 1.916 0 0 1-.375.668l-5.795 6.54.05.122h5.89c.177 0 .297.027.362.084.065.056.097.173.097.35v1.962c0 .178-.028.3-.084.364-.057.064-.173.097-.35.097h-9.394c-.402 0-.696-.094-.88-.28-.185-.185-.28-.44-.28-.763v-.727c0-.242.037-.484.11-.727.073-.243.23-.5.472-.775l5.77-6.54-.05-.1h-5.262c-.193 0-.313-.03-.362-.095-.048-.065-.073-.186-.073-.363V5.45c0-.308.154-.46.46-.46h8.595c.403 0 .706.06.905.18.203.122.302.384.302.788v.847z"/></svg>
