<svg xmlns="http://www.w3.org/2000/svg" width="20" height="20"><defs><filter id="a"><feColorMatrix in="SourceGraphic" values="0 0 0 0 0.970888 0 0 0 0 0.976022 0 0 0 0 0.991423 0 0 0 1.000000 0"/></filter></defs><g filter="url(#a)" fill="none" fill-rule="evenodd"><path fill="#8D94AD" fill-rule="nonzero" d="M19.375 11.25h-7.5a.625.625 0 00-.625.625v7.5c0 .346.28.625.625.625h7.5c.346 0 .625-.28.625-.625v-7.5a.625.625 0 00-.625-.625zm0-11.25h-7.5a.625.625 0 00-.625.625v7.5c0 .346.28.625.625.625h7.5c.346 0 .625-.28.625-.625v-7.5A.625.625 0 0019.375 0zM8.125 0h-7.5A.625.625 0 000 .625v7.5c0 .346.28.625.625.625h7.5c.345 0 .625-.28.625-.625v-7.5A.625.625 0 008.125 0zm0 11.25h-7.5a.625.625 0 00-.625.625v7.5c0 .346.28.625.625.625h7.5c.345 0 .625-.28.625-.625v-7.5a.625.625 0 00-.625-.625z"/></g></svg>
