<svg xmlns="http://www.w3.org/2000/svg" width="72" height="17" viewBox="0 0 72 17"><path fill="#72829B" fill-rule="evenodd" d="M10.277 0v3.292H7.74V16.45H3.466V3.292H.938V0h9.34zM20.52 2.967V16.45h-4.172l.07-1.12c-.283.454-.634.795-1.05 1.022-.416.227-.895.34-1.437.34-.614 0-1.125-.107-1.53-.324-.408-.217-.707-.504-.9-.864a3.162 3.162 0 0 1-.36-1.122c-.047-.39-.07-1.164-.07-2.322V2.967h4.1v9.173c0 1.05.032 1.674.096 1.87.065.197.24.295.523.295.304 0 .484-.102.542-.305.058-.203.086-.857.086-1.96V2.967h4.1zm5.573 0l-.162 1.767c.596-1.267 1.46-1.937 2.59-2.01v4.743c-.75 0-1.303.102-1.656.305-.352.204-.568.486-.65.848-.08.362-.12 1.198-.12 2.505v5.323H21.99V2.968h4.103zM33.533 0v3.89a3.36 3.36 0 0 1 1.133-.877 3.18 3.18 0 0 1 1.355-.29c.563 0 1.05.088 1.463.264.413.175.727.423.944.74.217.32.346.63.39.935.045.305.067.956.067 1.95v6.077c0 .99-.066 1.725-.198 2.21-.13.483-.44.903-.93 1.26-.486.355-1.064.532-1.735.532a2.94 2.94 0 0 1-1.343-.314 3.56 3.56 0 0 1-1.143-.945l-.263 1.016h-3.837V0h4.1zm1.25 6.797c0-.698-.044-1.153-.132-1.367-.087-.212-.26-.32-.517-.32-.25 0-.412.094-.487.28-.074.186-.112.655-.112 1.407v5.81c0 .726.043 1.19.127 1.393.086.204.253.305.504.305.257 0 .425-.105.502-.315.078-.21.117-.714.117-1.514v-5.68zm14.73 4.206c0 1.212-.062 2.1-.184 2.667a3.75 3.75 0 0 1-.782 1.585c-.4.49-.912.854-1.54 1.087-.624.234-1.343.35-2.155.35-.907 0-1.676-.1-2.305-.3-.63-.2-1.118-.5-1.467-.904a3.57 3.57 0 0 1-.744-1.462c-.15-.573-.224-1.43-.224-2.576V7.996c0-1.253.135-2.232.406-2.936.27-.705.758-1.27 1.462-1.697.704-.427 1.604-.64 2.7-.64.92 0 1.71.137 2.37.412.66.274 1.17.63 1.53 1.07.357.44.602.895.735 1.363.132.468.198 1.18.198 2.133v3.303zM45.41 6.685c0-.69-.037-1.126-.11-1.305-.077-.18-.236-.27-.48-.27-.243 0-.406.09-.486.27-.082.18-.122.615-.122 1.305v6.086c0 .638.04 1.053.12 1.245.082.194.24.29.478.29.244 0 .405-.088.483-.264.077-.175.116-.554.116-1.137V6.685zm8.182 6.41v3.353h-3.096v-3.352h3.096zm4.772-4.906h-3.848v-.906c0-1.042.12-1.847.36-2.412.24-.566.723-1.066 1.447-1.498.724-.435 1.665-.65 2.822-.65 1.387 0 2.433.244 3.137.735.704.49 1.127 1.093 1.27 1.807.14.715.212 2.187.212 4.415v6.766h-3.99V15.25c-.25.48-.574.842-.97 1.082-.396.24-.868.36-1.416.36a3.463 3.463 0 0 1-1.974-.603c-.6-.404-.898-1.286-.898-2.647v-1.108c0-1.01.16-1.697.476-2.062.32-.366 1.107-.793 2.366-1.28 1.347-.53 2.067-.884 2.162-1.067.095-.184.142-.556.142-1.118 0-.705-.052-1.164-.157-1.377a.542.542 0 0 0-.523-.32c-.277 0-.45.09-.517.27-.068.18-.102.645-.102 1.397V8.19zm1.3 1.85c-.657.48-1.038.882-1.143 1.207-.104.325-.156.793-.156 1.402 0 .697.045 1.147.136 1.35.092.204.273.305.543.305.258 0 .425-.08.504-.24.077-.157.116-.576.116-1.253v-2.774zM71.56 2.965v2.987l-3.025 7.792h3.025v2.702h-6.994v-2.825l3.096-7.954h-2.78v-2.7h6.68z"/></svg>
